<?xml version="1.0" encoding="UTF-8" standalone="no"?>
<!-- Created with Inkscape (http://www.inkscape.org/) -->

<svg
   xmlns:dc="http://purl.org/dc/elements/1.1/"
   xmlns:cc="http://creativecommons.org/ns#"
   xmlns:rdf="http://www.w3.org/1999/02/22-rdf-syntax-ns#"
   xmlns:svg="http://www.w3.org/2000/svg"
   xmlns="http://www.w3.org/2000/svg"
   xmlns:sodipodi="http://sodipodi.sourceforge.net/DTD/sodipodi-0.dtd"
   xmlns:inkscape="http://www.inkscape.org/namespaces/inkscape"
   width="327.42169"
   height="150.06396"
   viewBox="0 0 86.630328 39.704425"
   version="1.1"
   id="svg8"
   inkscape:version="0.92.2 (5c3e80d, 2017-08-06)"
   sodipodi:docname="icon_color.svg"
   inkscape:export-filename="/home/anxhelo/Desktop/Design/SwagSwap/icon_white.png"
   inkscape:export-xdpi="96"
   inkscape:export-ydpi="96">
  <defs
     id="defs2" />
  <sodipodi:namedview
     id="base"
     pagecolor="#ffffff"
     bordercolor="#666666"
     borderopacity="1.0"
     inkscape:pageopacity="0.0"
     inkscape:pageshadow="2"
     inkscape:zoom="1.4"
     inkscape:cx="90.962414"
     inkscape:cy="83.27156"
     inkscape:document-units="mm"
     inkscape:current-layer="g2907"
     inkscape:document-rotation="0"
     showgrid="false"
     borderlayer="true"
     inkscape:showpageshadow="false"
     units="px"
     inkscape:pagecheckerboard="false"
     showguides="true"
     inkscape:window-width="1366"
     inkscape:window-height="710"
     inkscape:window-x="0"
     inkscape:window-y="0"
     inkscape:window-maximized="1"
     fit-margin-top="0"
     fit-margin-left="0"
     fit-margin-right="0"
     fit-margin-bottom="0">
    <inkscape:grid
       type="xygrid"
       id="grid10"
       originx="-68.110834"
       originy="-34.989526" />
  </sodipodi:namedview>
  <metadata
     id="metadata5">
    <rdf:RDF>
      <cc:Work
         rdf:about="">
        <dc:format>image/svg+xml</dc:format>
        <dc:type
           rdf:resource="http://purl.org/dc/dcmitype/StillImage" />
        <dc:title></dc:title>
      </cc:Work>
    </rdf:RDF>
  </metadata>
  <g
     inkscape:label="Layer 1"
     inkscape:groupmode="layer"
     id="layer1"
     transform="translate(-68.110821,-222.30606)">
    <g
       id="g2907"
       transform="matrix(6.0935589,0,0,6.0935589,-823.97382,-1435.9696)">
      <g
         id="g3013"
         transform="matrix(4.8482469,0,0,4.8482469,-610.68044,-1110.8259)">
        <g
           transform="matrix(0.05789355,0,0,-0.05789355,157.35595,286.00316)"
           id="g216">
          <path
             inkscape:connector-curvature="0"
             id="path218"
             style="fill:#009bf9;fill-opacity:1;fill-rule:nonzero;stroke:none"
             d="M 0,0 H -16.911 L -18.2,2.12 H -9.542 1.81 Z m -3.621,-4.24 h -10.712 l -1.289,2.12 H -1.81 Z m -2.767,-3.24 c -0.366,-0.429 -1.461,-0.89 -3.001,-0.89 -1.445,0 -2.499,0.406 -2.925,0.811 l -0.73,1.199 h 7.613 z m -8.706,12.457 11.686,7.226 c 0.009,0.006 0.01,0.011 0.019,0.016 0.473,0.302 0.445,0.569 0,0.663 -0.067,0.014 -0.114,0.035 -0.199,0.041 l -1.409,0.088 c -0.671,0.043 -14.388,-8.174 -14.5,-8.25 -0.89,-0.606 -1.457,-1.09 -1.171,-2.057 0.131,-0.444 6.884,-11.374 6.884,-11.374 0.873,-1.021 2.634,-1.532 4.395,-1.532 0.88,0 1.761,0.127 2.53,0.383 0.77,0.255 1.428,0.639 1.864,1.149 l 8.172,9.568 h 1.406 v 4.079 z" />
        </g>
        <g
           transform="matrix(0.05789355,0,0,-0.05789355,157.78174,285.88044)"
           id="g220">
          <path
             inkscape:connector-curvature="0"
             id="path222"
             style="fill:#e24091;fill-opacity:1;fill-rule:nonzero;stroke:none"
             d="M 0,0 H 11.352 20.01 L 18.721,-2.12 H 1.81 Z M 3.621,-4.24 H 17.432 L 16.143,-6.36 H 5.431 Z m 3.621,-4.239 h 7.612 l -0.729,-1.2 c -0.427,-0.405 -1.481,-0.811 -2.926,-0.811 -1.539,0 -2.635,0.462 -3.001,0.89 z M -2.772,2.857 v -4.078 h 1.406 l 8.171,-9.569 c 0.436,-0.51 1.095,-0.893 1.864,-1.149 0.77,-0.255 1.65,-0.383 2.53,-0.383 1.761,0 3.522,0.511 4.395,1.532 0,0 6.754,10.93 6.885,11.374 0.285,0.967 -0.282,1.451 -1.172,2.057 C 21.195,2.717 7.478,10.934 6.808,10.892 L 5.399,10.803 C 5.313,10.798 5.266,10.776 5.2,10.762 4.754,10.668 4.727,10.401 5.2,10.099 5.208,10.094 5.21,10.089 5.219,10.084 L 16.905,2.857 Z" />
        </g>
      </g>
    </g>
  </g>
</svg>
