<?xml version="1.0" encoding="UTF-8" standalone="no"?>
<!-- Created with Inkscape (http://www.inkscape.org/) -->

<svg
   xmlns:dc="http://purl.org/dc/elements/1.1/"
   xmlns:cc="http://creativecommons.org/ns#"
   xmlns:rdf="http://www.w3.org/1999/02/22-rdf-syntax-ns#"
   xmlns:svg="http://www.w3.org/2000/svg"
   xmlns="http://www.w3.org/2000/svg"
   xmlns:sodipodi="http://sodipodi.sourceforge.net/DTD/sodipodi-0.dtd"
   xmlns:inkscape="http://www.inkscape.org/namespaces/inkscape"
   width="328.2713"
   height="150.44704"
   viewBox="0 0 86.85512 39.805779"
   version="1.1"
   id="svg8"
   inkscape:version="0.92.2 (5c3e80d, 2017-08-06)"
   sodipodi:docname="icon_white.svg"
   inkscape:export-filename="/home/anxhelo/Desktop/Design/SwagSwap/icon_black.png"
   inkscape:export-xdpi="96"
   inkscape:export-ydpi="96">
  <defs
     id="defs2" />
  <sodipodi:namedview
     id="base"
     pagecolor="#ffffff"
     bordercolor="#666666"
     borderopacity="1.0"
     inkscape:pageopacity="0.0"
     inkscape:pageshadow="2"
     inkscape:zoom="0.49497475"
     inkscape:cx="122.04665"
     inkscape:cy="9.2442288"
     inkscape:document-units="mm"
     inkscape:current-layer="g2907"
     inkscape:document-rotation="0"
     showgrid="false"
     borderlayer="true"
     inkscape:showpageshadow="false"
     units="px"
     inkscape:pagecheckerboard="false"
     showguides="true"
     inkscape:window-width="1366"
     inkscape:window-height="710"
     inkscape:window-x="0"
     inkscape:window-y="0"
     inkscape:window-maximized="1"
     fit-margin-top="0"
     fit-margin-left="0"
     fit-margin-right="0"
     fit-margin-bottom="0">
    <inkscape:grid
       type="xygrid"
       id="grid10"
       originx="-68.079604"
       originy="-45.745616" />
  </sodipodi:namedview>
  <metadata
     id="metadata5">
    <rdf:RDF>
      <cc:Work
         rdf:about="">
        <dc:format>image/svg+xml</dc:format>
        <dc:type
           rdf:resource="http://purl.org/dc/dcmitype/StillImage" />
        <dc:title></dc:title>
      </cc:Work>
    </rdf:RDF>
  </metadata>
  <g
     inkscape:label="Layer 1"
     inkscape:groupmode="layer"
     id="layer1"
     transform="translate(-68.079595,-211.44861)">
    <g
       id="g2907"
       transform="matrix(6.0935589,0,0,6.0935589,-823.97382,-1435.9696)">
      <g
         transform="matrix(0.35277777,0,0,-0.35277777,152.23008,274.01556)"
         id="g192"
         style="fill:#ffffff">
        <path
           inkscape:connector-curvature="0"
           id="path194"
           style="fill:#ffffff;fill-opacity:1;fill-rule:nonzero;stroke:none"
           d="m 0,0 h -13.49 l -1.028,1.691 h 6.906 9.056 z m -2.888,-3.382 h -8.545 l -1.029,1.691 h 11.018 z m -2.208,-2.585 c -0.292,-0.342 -1.166,-0.71 -2.394,-0.71 -1.152,0 -1.993,0.324 -2.333,0.647 l -0.582,0.957 h 6.072 z m -6.945,9.937 9.322,5.765 c 0.007,0.004 0.009,0.008 0.015,0.012 0.378,0.241 0.356,0.454 0,0.529 -0.053,0.011 -0.09,0.028 -0.158,0.033 l -1.124,0.07 c -0.535,0.034 -11.478,-6.521 -11.567,-6.581 -0.71,-0.484 -1.162,-0.87 -0.934,-1.641 0.104,-0.354 5.492,-9.073 5.492,-9.073 0.696,-0.815 2.1,-1.222 3.505,-1.222 0.703,0 1.405,0.101 2.019,0.305 0.614,0.204 1.139,0.51 1.487,0.917 L 2.534,0.717 H 3.656 V 3.97 Z" />
      </g>
      <g
         transform="matrix(0.35277777,0,0,-0.35277777,154.29979,273.41901)"
         id="g196"
         style="fill:#ffffff">
        <path
           inkscape:connector-curvature="0"
           id="path198"
           style="fill:#ffffff;fill-opacity:1;fill-rule:nonzero;stroke:none"
           d="m 0,0 h 9.056 6.906 L 14.934,-1.691 H 1.444 Z M 2.888,-3.382 H 13.906 L 12.878,-5.073 H 4.333 Z m 2.889,-3.382 h 6.072 L 11.268,-7.721 C 10.927,-8.044 10.087,-8.368 8.934,-8.368 7.706,-8.368 6.832,-8 6.54,-7.658 Z m -7.988,9.043 v -3.253 h 1.121 l 6.518,-7.633 c 0.348,-0.407 0.874,-0.713 1.487,-0.917 0.614,-0.204 1.317,-0.305 2.019,-0.305 1.405,0 2.809,0.407 3.505,1.222 0,0 5.388,8.719 5.492,9.073 0.228,0.771 -0.224,1.157 -0.934,1.641 C 16.908,2.167 5.966,8.722 5.431,8.688 L 4.307,8.618 C 4.239,8.613 4.201,8.596 4.148,8.585 3.792,8.51 3.77,8.297 4.148,8.056 4.155,8.052 4.156,8.048 4.163,8.044 l 9.322,-5.765 z" />
      </g>
    </g>
  </g>
</svg>
