<?xml version="1.0" encoding="UTF-8" standalone="no"?>
<!-- Created with Inkscape (http://www.inkscape.org/) -->

<svg
   xmlns:dc="http://purl.org/dc/elements/1.1/"
   xmlns:cc="http://creativecommons.org/ns#"
   xmlns:rdf="http://www.w3.org/1999/02/22-rdf-syntax-ns#"
   xmlns:svg="http://www.w3.org/2000/svg"
   xmlns="http://www.w3.org/2000/svg"
   xmlns:sodipodi="http://sodipodi.sourceforge.net/DTD/sodipodi-0.dtd"
   xmlns:inkscape="http://www.inkscape.org/namespaces/inkscape"
   width="1010.1188"
   height="127.8204"
   viewBox="0 0 267.2606 33.819145"
   version="1.1"
   id="svg8"
   inkscape:version="0.92.2 (5c3e80d, 2017-08-06)"
   sodipodi:docname="horizontal_black.svg">
  <defs
     id="defs2" />
  <sodipodi:namedview
     id="base"
     pagecolor="#ffffff"
     bordercolor="#666666"
     borderopacity="1.0"
     inkscape:pageopacity="0.0"
     inkscape:pageshadow="2"
     inkscape:zoom="0.49497475"
     inkscape:cx="490.71253"
     inkscape:cy="90.57349"
     inkscape:document-units="mm"
     inkscape:current-layer="layer1"
     inkscape:document-rotation="0"
     showgrid="false"
     borderlayer="true"
     inkscape:showpageshadow="false"
     units="px"
     inkscape:pagecheckerboard="false"
     showguides="true"
     inkscape:window-width="1366"
     inkscape:window-height="710"
     inkscape:window-x="0"
     inkscape:window-y="0"
     inkscape:window-maximized="1"
     fit-margin-top="0"
     fit-margin-left="0"
     fit-margin-right="0"
     fit-margin-bottom="0">
    <inkscape:grid
       type="xygrid"
       id="grid10"
       originx="-85.595909"
       originy="-102.65953" />
  </sodipodi:namedview>
  <metadata
     id="metadata5">
    <rdf:RDF>
      <cc:Work
         rdf:about="">
        <dc:format>image/svg+xml</dc:format>
        <dc:type
           rdf:resource="http://purl.org/dc/dcmitype/StillImage" />
        <dc:title></dc:title>
      </cc:Work>
    </rdf:RDF>
  </metadata>
  <g
     inkscape:label="Layer 1"
     inkscape:groupmode="layer"
     id="layer1"
     transform="translate(-85.595907,-160.52132)">
    <g
       id="g2559"
       transform="matrix(4.0385567,0,0,4.0385567,-647.81346,-619.03021)"
       style="fill:#000000">
      <g
         transform="matrix(0.35277777,0,0,-0.35277777,206.65777,194.58086)"
         id="g200"
         style="fill:#000000">
        <path
           inkscape:connector-curvature="0"
           id="path202"
           style="fill:#000000;fill-opacity:1;fill-rule:nonzero;stroke:none"
           d="M 0,0 C 0.074,-0.338 0.697,-0.961 1.868,-1.868 L 2.487,-2.61 C 2.47,-2.858 1.188,-3.851 -1.361,-5.592 h -0.371 c -1.361,1.402 -2.524,2.103 -3.488,2.103 h -0.124 v -0.618 c 0,-1.699 2.61,-3.15 7.831,-4.355 2.325,-0.437 3.488,-0.931 3.488,-1.484 v -0.124 c -1.583,-1.789 -3.74,-3.406 -6.47,-4.849 -2.754,-1.163 -5.406,-1.744 -7.954,-1.744 -0.248,0.288 -0.371,0.701 -0.371,1.237 0.643,2.408 1.554,3.612 2.734,3.612 1.55,0.577 2.544,0.866 2.981,0.866 l 0.124,-0.124 v -0.247 c -0.495,-1.221 -0.743,-2.132 -0.743,-2.734 2.153,0 3.811,0.705 4.973,2.115 -5.434,1.361 -8.832,2.689 -10.193,3.984 -0.833,0.791 -1.249,1.62 -1.249,2.486 0,1.048 1.076,2.206 3.228,3.476 1.081,0.248 2.45,0.788 4.107,1.621 z" />
      </g>
      <g
         transform="matrix(0.35277777,0,0,-0.35277777,213.26487,193.02726)"
         id="g204"
         style="fill:#000000">
        <path
           inkscape:connector-curvature="0"
           id="path206"
           style="fill:#000000;fill-opacity:1;fill-rule:nonzero;stroke:none"
           d="m 0,0 c 1.955,-0.569 2.932,-1.303 2.932,-2.202 0.354,-0.627 0.532,-1.497 0.532,-2.61 0,-1.823 -0.248,-4.231 -0.742,-7.225 -0.627,-2.474 -0.941,-4.919 -0.941,-7.336 -0.536,-0.536 -1.756,-1.373 -3.661,-2.511 l -3.143,7.645 H -5.121 L -5.864,-17.9 c -0.783,-0.693 -1.55,-1.147 -2.301,-1.361 0,-0.116 -0.346,-0.396 -1.039,-0.841 h -0.111 c -0.322,0.206 -0.775,1.216 -1.361,3.03 -0.775,1.864 -1.649,3.402 -2.623,4.615 l -0.098,0.309 c 0,0.701 0.313,1.051 0.94,1.051 0.363,0.256 1.2,0.57 2.511,0.941 h 0.21 c 0.107,0 0.598,-0.697 1.472,-2.091 0.421,1.369 0.631,2.693 0.631,3.971 l -0.111,0.532 c 1.781,0.973 3.039,1.46 3.773,1.46 0.206,-0.33 0.8,-1.971 1.781,-4.924 l 0.619,-1.46 h 0.111 c 0.33,1.048 0.644,2.759 0.94,5.134 l -0.099,0.099 0.099,0.52 c -0.057,2.408 -0.721,3.876 -1.991,4.404 l -1.25,-0.211 -0.21,0.31 v 0.321 c 0,0.924 1.047,1.588 3.142,1.992 z" />
      </g>
      <g
         transform="matrix(0.35277777,0,0,-0.35277777,216.73885,197.6532)"
         id="g208"
         style="fill:#000000">
        <path
           inkscape:connector-curvature="0"
           id="path210"
           style="fill:#000000;fill-opacity:1;fill-rule:nonzero;stroke:none"
           d="m 0,0 -1.027,-1.917 v -0.508 l 0.767,-0.123 1.534,0.383 z M 1.905,9.439 2.672,7.398 C 3.159,6.796 4.263,4.458 5.986,0.383 L 7.768,-4.33 C 8.197,-4.899 8.411,-5.369 8.411,-5.74 V -5.864 C 7.677,-6.631 6.613,-7.439 5.219,-8.288 c -1.821,0.173 -2.84,0.511 -3.054,1.014 0,0.181 0.511,0.437 1.534,0.767 -0.685,1.386 -1.283,2.408 -1.794,3.068 -1.089,-0.594 -2.998,-1.019 -5.728,-1.274 l -2.56,-1.534 h -0.124 c -0.594,0 -0.891,0.297 -0.891,0.89 0.058,1.023 0.314,1.534 0.767,1.534 v 0.124 c -0.429,0.066 -0.643,0.404 -0.643,1.015 0.049,0.189 0.816,0.531 2.301,1.026 1.616,3.208 2.425,5.716 2.425,7.522 l -0.136,1.014 z" />
      </g>
      <g
         transform="matrix(0.35277777,0,0,-0.35277777,221.42991,198.28602)"
         id="g212"
         style="fill:#000000">
        <path
           inkscape:connector-curvature="0"
           id="path214"
           style="fill:#000000;fill-opacity:1;fill-rule:nonzero;stroke:none"
           d="m 0,0 c 0.652,-0.726 1.621,-1.089 2.907,-1.089 v 0.248 H 3.031 C 2.891,-0.198 2.404,0.124 1.571,0.124 H 0.606 Z m 6.668,10.552 c 0.321,0 0.643,-1.336 0.965,-4.008 C 5.315,5.258 3.781,4.614 3.031,4.614 H 2.907 L 2.783,4.726 2.66,4.614 H 2.425 C 1.757,5.497 1.192,5.938 0.73,5.938 -0.293,4.948 -0.899,3.901 -1.089,2.796 L -1.212,2.19 -1.089,2.066 C 1.963,2.94 5.031,3.992 8.115,5.22 L 8.969,5.332 9.451,4.491 8.363,-4.602 v -0.235 c 0.395,0 0.676,-0.243 0.841,-0.73 0,-0.676 -1.654,-1.645 -4.961,-2.907 L 3.872,-8.239 3.748,-8.35 H 3.637 c -0.247,0 -0.412,0.441 -0.495,1.323 h 0.124 l -0.124,0.124 0.371,2.301 -0.123,0.371 0.123,0.359 H 3.39 L 0.359,-4.231 H 0 l -0.124,0.112 -0.123,-0.112 c -2.293,0 -4.272,1.13 -5.938,3.39 l -0.483,1.818 c 0,2.953 1.938,5.254 5.814,6.903 1.823,0.726 3.963,1.452 6.421,2.177 0.363,0.33 0.73,0.495 1.101,0.495" />
      </g>
      <g
         transform="matrix(0.35277777,0,0,-0.35277777,188.91939,197.80225)"
         id="g216"
         style="fill:#000000">
        <path
           inkscape:connector-curvature="0"
           id="path218"
           style="fill:#000000;fill-opacity:1;fill-rule:nonzero;stroke:none"
           d="M 0,0 H -16.911 L -18.2,2.12 H -9.542 1.81 Z m -3.621,-4.24 h -10.712 l -1.289,2.12 H -1.81 Z m -2.767,-3.24 c -0.366,-0.429 -1.461,-0.89 -3.001,-0.89 -1.445,0 -2.499,0.406 -2.925,0.811 l -0.73,1.199 h 7.613 z m -8.706,12.457 11.686,7.226 c 0.009,0.006 0.01,0.011 0.019,0.016 0.473,0.302 0.445,0.569 0,0.663 -0.067,0.014 -0.114,0.035 -0.199,0.041 l -1.409,0.088 c -0.671,0.043 -14.388,-8.174 -14.5,-8.25 -0.89,-0.606 -1.457,-1.09 -1.171,-2.057 0.131,-0.444 6.884,-11.374 6.884,-11.374 0.873,-1.021 2.634,-1.532 4.395,-1.532 0.88,0 1.761,0.127 2.53,0.383 0.77,0.255 1.428,0.639 1.864,1.149 l 8.172,9.568 h 1.406 v 4.079 z" />
      </g>
      <g
         transform="matrix(0.35277777,0,0,-0.35277777,191.51397,197.0544)"
         id="g220"
         style="fill:#000000">
        <path
           inkscape:connector-curvature="0"
           id="path222"
           style="fill:#000000;fill-opacity:1;fill-rule:nonzero;stroke:none"
           d="M 0,0 H 11.352 20.01 L 18.721,-2.12 H 1.81 Z M 3.621,-4.24 H 17.432 L 16.143,-6.36 H 5.431 Z m 3.621,-4.239 h 7.612 l -0.729,-1.2 c -0.427,-0.405 -1.481,-0.811 -2.926,-0.811 -1.539,0 -2.635,0.462 -3.001,0.89 z M -2.772,2.857 v -4.078 h 1.406 l 8.171,-9.569 c 0.436,-0.51 1.095,-0.893 1.864,-1.149 0.77,-0.255 1.65,-0.383 2.53,-0.383 1.761,0 3.522,0.511 4.395,1.532 0,0 6.754,10.93 6.885,11.374 0.285,0.967 -0.282,1.451 -1.172,2.057 C 21.195,2.717 7.478,10.934 6.808,10.892 L 5.399,10.803 C 5.313,10.798 5.266,10.776 5.2,10.762 4.754,10.668 4.727,10.401 5.2,10.099 5.208,10.094 5.21,10.089 5.219,10.084 L 16.905,2.857 Z" />
      </g>
      <g
         transform="matrix(0.35277777,0,0,-0.35277777,231.15917,193.84292)"
         id="g224"
         style="fill:#000000">
        <path
           inkscape:connector-curvature="0"
           id="path226"
           style="fill:#000000;fill-opacity:1;fill-rule:nonzero;stroke:none"
           d="M 0,0 C 0.008,-0.423 0.604,-1.318 1.788,-2.687 L 2.351,-3.725 C 2.271,-4.017 0.496,-4.899 -2.975,-6.37 l -0.444,0.089 c -1.293,2.007 -2.517,3.126 -3.673,3.358 l -0.148,0.03 -0.149,-0.741 c -0.409,-2.035 2.369,-4.402 8.332,-7.099 2.681,-1.083 3.955,-1.956 3.822,-2.618 l -0.03,-0.148 c -2.327,-1.763 -5.299,-3.18 -8.916,-4.252 -3.579,-0.731 -6.895,-0.789 -9.948,-0.176 -0.226,0.405 -0.275,0.929 -0.146,1.571 1.349,2.729 2.73,3.953 4.143,3.669 1.996,0.318 3.256,0.425 3.779,0.32 l 0.119,-0.178 -0.06,-0.296 c -0.886,-1.343 -1.401,-2.375 -1.546,-3.096 2.578,-0.518 4.733,-0.072 6.465,1.337 -6.182,2.937 -9.933,5.345 -11.251,7.223 -0.808,1.149 -1.107,2.242 -0.899,3.279 0.252,1.255 1.82,2.384 4.704,3.388 1.353,0.036 3.123,0.354 5.309,0.953 z" />
      </g>
      <g
         transform="matrix(0.35277777,0,0,-0.35277777,236.95224,194.08055)"
         id="g228"
         style="fill:#000000">
        <path
           inkscape:connector-curvature="0"
           id="path230"
           style="fill:#000000;fill-opacity:1;fill-rule:nonzero;stroke:none"
           d="m 0,0 c 1.898,-0.736 2.808,-1.552 2.73,-2.447 0.3,-0.655 -0.643,-5.221 -1.394,-8.161 -0.839,-2.411 -1.362,-4.82 -1.571,-7.227 -0.581,-0.488 -1.869,-1.216 -3.866,-2.185 l -2.469,7.888 -0.098,0.008 -1.057,-3.583 c -0.84,-0.623 -1.643,-1.008 -2.41,-1.157 -0.01,-0.115 -0.379,-0.365 -1.108,-0.748 l -0.111,0.009 c -0.302,0.234 -0.667,1.279 -1.093,3.137 -0.611,1.924 -1.349,3.532 -2.214,4.824 l -0.072,0.317 c 0.061,0.698 0.404,1.02 1.028,0.966 0.384,0.223 1.245,0.463 2.583,0.72 l 0.21,-0.019 c 0.106,-0.009 0.535,-0.746 1.285,-2.21 0.538,1.328 0.862,2.628 0.972,3.902 l -0.065,0.539 c 1.859,0.816 3.154,1.192 3.886,1.128 0.176,-0.346 0.626,-2.032 1.349,-5.059 l 0.49,-1.507 0.11,-0.01 c 0.42,1.015 1.291,5.14 1.291,5.14 l 0.144,0.509 c 0.15,2.405 -0.049,2.306 -1.269,2.941 0,0 -0.237,2.037 1.885,2.258 z" />
      </g>
      <g
         transform="matrix(0.35277777,0,0,-0.35277777,239.97879,197.72785)"
         id="g232"
         style="fill:#000000">
        <path
           inkscape:connector-curvature="0"
           id="path234"
           style="fill:#000000;fill-opacity:1;fill-rule:nonzero;stroke:none"
           d="m 0,0 -1.349,-1.935 -0.064,-0.546 0.81,-0.231 1.701,0.219 z M 3.248,9.924 3.815,7.628 C 4.263,6.918 5.156,4.26 6.496,-0.346 l 1.321,-5.301 c 0.39,-0.667 0.561,-1.201 0.514,-1.6 L 8.315,-7.381 C 7.428,-8.114 6.179,-8.849 4.571,-9.587 c -1.94,0.417 -2.994,0.91 -3.161,1.479 0.023,0.195 0.606,0.406 1.749,0.632 -0.562,1.578 -1.076,2.756 -1.543,3.531 -1.248,-0.502 -3.358,-0.717 -6.33,-0.647 l -2.952,-1.327 -0.133,0.016 c -0.64,0.075 -0.922,0.432 -0.847,1.072 0.192,1.094 0.532,1.612 1.021,1.555 l 0.015,0.133 c -0.453,0.125 -0.641,0.516 -0.564,1.174 0.078,0.198 0.947,0.469 2.608,0.814 2.148,3.25 3.336,5.848 3.565,7.793 l -0.018,1.109 z" />
      </g>
      <g
         transform="matrix(0.35277777,0,0,-0.35277777,244.81577,197.19981)"
         id="g236"
         style="fill:#000000">
        <path
           inkscape:connector-curvature="0"
           id="path238"
           style="fill:#000000;fill-opacity:1;fill-rule:nonzero;stroke:none"
           d="m 0,0 0.285,-2.029 2.028,1.312 v 0.136 z m -4.206,8.115 h 0.445 C -1.361,6.095 1.146,4.647 3.761,3.773 6.853,2.899 8.4,2.317 8.4,2.029 8.4,1.353 5.744,-0.383 0.433,-3.179 V -3.476 L 0.581,-4.924 H 0.433 L 0.581,-5.072 V -5.208 L 0.433,-5.357 v -0.148 l 0.148,-0.866 c -1.22,-0.825 -3.006,-1.645 -5.356,-2.462 -0.223,0 -0.371,0.244 -0.445,0.73 l 0.148,1.732 -0.148,1.014 h 0.148 l -0.148,0.149 v 0.866 l -0.285,2.029 h 0.148 c -0.841,2.861 -1.954,5.129 -3.34,6.804 l -0.284,0.433 v 0.148 z" />
      </g>
    </g>
  </g>
</svg>
