<?xml version="1.0" encoding="UTF-8" standalone="no"?>
<!-- Created with Inkscape (http://www.inkscape.org/) -->

<svg
   xmlns:dc="http://purl.org/dc/elements/1.1/"
   xmlns:cc="http://creativecommons.org/ns#"
   xmlns:rdf="http://www.w3.org/1999/02/22-rdf-syntax-ns#"
   xmlns:svg="http://www.w3.org/2000/svg"
   xmlns="http://www.w3.org/2000/svg"
   xmlns:sodipodi="http://sodipodi.sourceforge.net/DTD/sodipodi-0.dtd"
   xmlns:inkscape="http://www.inkscape.org/namespaces/inkscape"
   width="373.72626"
   height="415.69553"
   viewBox="0 0 98.881745 109.98611"
   version="1.1"
   id="svg8"
   inkscape:version="0.92.2 (5c3e80d, 2017-08-06)"
   sodipodi:docname="vertical_color_2.svg"
   inkscape:export-filename="/home/anxhelo/Desktop/Design/SwagSwap/vertical_white.png"
   inkscape:export-xdpi="96"
   inkscape:export-ydpi="96">
  <defs
     id="defs2" />
  <sodipodi:namedview
     id="base"
     pagecolor="#ffffff"
     bordercolor="#666666"
     borderopacity="1.0"
     inkscape:pageopacity="0.0"
     inkscape:pageshadow="2"
     inkscape:zoom="0.49497475"
     inkscape:cx="141.6758"
     inkscape:cy="135.09158"
     inkscape:document-units="mm"
     inkscape:current-layer="g2907"
     inkscape:document-rotation="0"
     showgrid="false"
     borderlayer="true"
     inkscape:showpageshadow="false"
     units="px"
     inkscape:pagecheckerboard="false"
     showguides="true"
     inkscape:window-width="1366"
     inkscape:window-height="710"
     inkscape:window-x="0"
     inkscape:window-y="0"
     inkscape:window-maximized="1"
     fit-margin-top="0"
     fit-margin-left="0"
     fit-margin-right="0"
     fit-margin-bottom="0">
    <inkscape:grid
       type="xygrid"
       id="grid10"
       originx="-62.886055"
       originy="-12.448504" />
  </sodipodi:namedview>
  <metadata
     id="metadata5">
    <rdf:RDF>
      <cc:Work
         rdf:about="">
        <dc:format>image/svg+xml</dc:format>
        <dc:type
           rdf:resource="http://purl.org/dc/dcmitype/StillImage" />
        <dc:title></dc:title>
      </cc:Work>
    </rdf:RDF>
  </metadata>
  <g
     inkscape:label="Layer 1"
     inkscape:groupmode="layer"
     id="layer1"
     transform="translate(-62.88605,-174.56539)">
    <g
       id="g2907"
       transform="matrix(6.0935589,0,0,6.0935589,-823.97382,-1435.9696)">
      <g
         transform="matrix(0.35277777,0,0,-0.35277777,148.03574,273.37756)"
         id="g144">
        <path
           inkscape:connector-curvature="0"
           id="path146"
           style="fill:#fff44f;fill-opacity:1;fill-rule:nonzero;stroke:none"
           d="M 0,0 C 0.052,-0.235 0.484,-0.667 1.296,-1.296 L 1.725,-1.811 C 1.714,-1.983 0.824,-2.672 -0.944,-3.88 h -0.258 c -0.944,0.973 -1.751,1.459 -2.42,1.459 H -3.708 V -2.85 c 0,-1.179 1.811,-2.186 5.433,-3.021 1.614,-0.304 2.421,-0.647 2.421,-1.03 v -0.086 c -1.099,-1.242 -2.595,-2.364 -4.489,-3.365 -1.912,-0.807 -3.751,-1.21 -5.52,-1.21 -0.171,0.2 -0.257,0.486 -0.257,0.858 0.446,1.671 1.078,2.507 1.897,2.507 1.076,0.4 1.765,0.6 2.068,0.6 l 0.086,-0.085 v -0.172 c -0.343,-0.847 -0.515,-1.479 -0.515,-1.897 1.494,0 2.644,0.489 3.451,1.468 -3.771,0.944 -6.129,1.865 -7.073,2.764 -0.578,0.549 -0.867,1.124 -0.867,1.725 0,0.727 0.747,1.531 2.24,2.412 0.75,0.172 1.7,0.547 2.85,1.124 z" />
      </g>
      <g
         transform="matrix(0.35277777,0,0,-0.35277777,152.62027,272.29954)"
         id="g148">
        <path
           inkscape:connector-curvature="0"
           id="path150"
           style="fill:#fff44f;fill-opacity:1;fill-rule:nonzero;stroke:none"
           d="m 0,0 c 1.356,-0.395 2.034,-0.904 2.034,-1.528 0.246,-0.435 0.369,-1.039 0.369,-1.811 0,-1.265 -0.171,-2.936 -0.515,-5.013 -0.434,-1.717 -0.652,-3.413 -0.652,-5.09 -0.372,-0.372 -1.219,-0.953 -2.541,-1.743 l -2.18,5.305 h -0.069 l -0.515,-2.541 c -0.543,-0.48 -1.076,-0.795 -1.596,-0.944 0,-0.08 -0.241,-0.275 -0.721,-0.584 h -0.078 c -0.223,0.143 -0.537,0.844 -0.944,2.103 -0.538,1.294 -1.144,2.361 -1.82,3.202 l -0.068,0.215 c 0,0.486 0.217,0.729 0.652,0.729 0.252,0.178 0.833,0.395 1.743,0.653 h 0.146 c 0.074,0 0.414,-0.484 1.021,-1.451 0.292,0.95 0.438,1.868 0.438,2.755 l -0.077,0.37 c 1.236,0.675 2.108,1.012 2.618,1.012 0.143,-0.228 0.555,-1.367 1.236,-3.416 L -1.09,-8.79 h 0.077 c 0.229,0.727 0.446,1.914 0.652,3.563 l -0.068,0.068 0.068,0.361 c -0.04,1.671 -0.5,2.689 -1.381,3.056 l -0.867,-0.146 -0.146,0.214 v 0.223 c 0,0.641 0.726,1.102 2.18,1.382 z" />
      </g>
      <g
         transform="matrix(0.35277777,0,0,-0.35277777,155.03076,275.50939)"
         id="g152">
        <path
           inkscape:connector-curvature="0"
           id="path154"
           style="fill:#fff44f;fill-opacity:1;fill-rule:nonzero;stroke:none"
           d="m 0,0 -0.712,-1.33 v -0.352 l 0.532,-0.086 1.064,0.266 z M 1.322,6.549 1.854,5.133 C 2.192,4.715 2.958,3.093 4.154,0.266 L 5.39,-3.004 C 5.687,-3.399 5.836,-3.725 5.836,-3.983 V -4.069 C 5.327,-4.601 4.589,-5.162 3.622,-5.751 c -1.264,0.12 -1.971,0.355 -2.12,0.704 0,0.126 0.355,0.303 1.065,0.532 -0.475,0.961 -0.89,1.671 -1.245,2.129 -0.755,-0.412 -2.08,-0.707 -3.974,-0.884 l -1.777,-1.065 h -0.086 c -0.412,0 -0.618,0.206 -0.618,0.618 0.04,0.71 0.217,1.065 0.532,1.065 v 0.085 c -0.297,0.046 -0.446,0.281 -0.446,0.704 0.034,0.132 0.566,0.369 1.596,0.713 1.122,2.226 1.683,3.965 1.683,5.219 l -0.095,0.704 z" />
      </g>
      <g
         transform="matrix(0.35277777,0,0,-0.35277777,158.28577,275.94846)"
         id="g156">
        <path
           inkscape:connector-curvature="0"
           id="path158"
           style="fill:#fff44f;fill-opacity:1;fill-rule:nonzero;stroke:none"
           d="m 0,0 c 0.452,-0.504 1.124,-0.755 2.017,-0.755 v 0.171 H 2.103 C 2.006,-0.137 1.668,0.086 1.09,0.086 H 0.421 Z M 4.627,7.322 C 4.85,7.322 5.073,6.395 5.296,4.541 3.688,3.648 2.624,3.202 2.103,3.202 H 2.017 L 1.931,3.279 1.846,3.202 H 1.682 C 1.219,3.814 0.827,4.12 0.506,4.12 -0.203,3.433 -0.624,2.707 -0.755,1.94 L -0.841,1.519 -0.755,1.433 C 1.362,2.04 3.491,2.77 5.631,3.622 L 6.223,3.7 6.558,3.116 5.803,-3.193 v -0.163 c 0.274,0 0.469,-0.169 0.583,-0.507 0,-0.469 -1.147,-1.141 -3.442,-2.017 L 2.687,-5.717 2.601,-5.794 H 2.524 c -0.172,0 -0.286,0.306 -0.344,0.918 H 2.266 L 2.18,-4.79 2.438,-3.193 2.352,-2.936 2.438,-2.687 H 2.352 L 0.249,-2.936 H 0 l -0.086,0.078 -0.086,-0.078 c -1.591,0 -2.964,0.784 -4.12,2.352 l -0.335,1.262 c 0,2.049 1.345,3.645 4.035,4.79 1.264,0.503 2.749,1.007 4.455,1.511 0.251,0.228 0.506,0.343 0.764,0.343" />
      </g>
      <g
         transform="matrix(0.35277777,0,0,-0.35277777,150.23581,277.2851)"
         id="g160">
        <path
           inkscape:connector-curvature="0"
           id="path162"
           style="fill:#00ffff;fill-opacity:1;fill-rule:nonzero;stroke:none"
           d="m 0,0 c 0.005,-0.293 0.419,-0.915 1.241,-1.864 l 0.39,-0.72 C 1.576,-2.787 0.344,-3.399 -2.064,-4.42 l -0.309,0.062 c -0.897,1.392 -1.746,2.169 -2.548,2.33 l -0.103,0.02 -0.103,-0.514 c -0.284,-1.412 1.644,-3.054 5.781,-4.926 1.86,-0.751 2.744,-1.356 2.652,-1.816 l -0.02,-0.103 c -1.615,-1.223 -3.677,-2.206 -6.187,-2.95 -2.484,-0.507 -4.784,-0.548 -6.902,-0.122 -0.158,0.281 -0.192,0.644 -0.102,1.09 0.936,1.894 1.895,2.743 2.875,2.546 1.385,0.221 2.259,0.295 2.622,0.222 l 0.082,-0.124 -0.041,-0.205 c -0.615,-0.932 -0.973,-1.648 -1.073,-2.149 1.789,-0.359 3.284,-0.049 4.486,0.929 -4.29,2.038 -6.892,3.708 -7.807,5.012 -0.56,0.797 -0.768,1.555 -0.624,2.275 0.175,0.87 1.263,1.654 3.264,2.35 0.939,0.025 2.167,0.246 3.684,0.661 z" />
      </g>
      <g
         transform="matrix(0.35277777,0,0,-0.35277777,154.2555,277.44999)"
         id="g164">
        <path
           inkscape:connector-curvature="0"
           id="path166"
           style="fill:#00ffff;fill-opacity:1;fill-rule:nonzero;stroke:none"
           d="m 0,0 c 1.317,-0.511 1.949,-1.077 1.895,-1.698 0.207,-0.455 -0.447,-3.623 -0.968,-5.663 -0.582,-1.672 -0.945,-3.344 -1.09,-5.014 -0.403,-0.339 -1.297,-0.844 -2.682,-1.517 l -1.714,5.474 -0.068,0.006 -0.733,-2.487 c -0.583,-0.432 -1.14,-0.699 -1.672,-0.803 -0.007,-0.079 -0.263,-0.252 -0.769,-0.519 l -0.077,0.007 c -0.21,0.162 -0.463,0.887 -0.759,2.177 -0.424,1.335 -0.936,2.45 -1.536,3.347 l -0.05,0.22 c 0.042,0.484 0.28,0.708 0.713,0.67 0.267,0.155 0.864,0.321 1.793,0.499 l 0.145,-0.012 c 0.074,-0.007 0.372,-0.518 0.892,-1.534 0.373,0.921 0.598,1.824 0.675,2.707 l -0.045,0.375 c 1.29,0.565 2.188,0.826 2.696,0.782 0.122,-0.24 0.434,-1.41 0.936,-3.51 l 0.339,-1.046 0.077,-0.007 c 0.291,0.704 0.896,3.567 0.896,3.567 l 0.1,0.353 c 0.104,1.668 -0.034,1.6 -0.881,2.041 0,0 -0.164,1.413 1.308,1.566 z" />
      </g>
      <g
         transform="matrix(0.35277777,0,0,-0.35277777,156.35555,279.98078)"
         id="g168">
        <path
           inkscape:connector-curvature="0"
           id="path170"
           style="fill:#00ffff;fill-opacity:1;fill-rule:nonzero;stroke:none"
           d="m 0,0 -0.936,-1.343 -0.044,-0.379 0.562,-0.159 1.18,0.151 z M 2.254,6.886 2.647,5.293 C 2.958,4.8 3.577,2.956 4.507,-0.24 l 0.917,-3.678 c 0.27,-0.463 0.389,-0.834 0.357,-1.111 L 5.77,-5.121 C 5.154,-5.63 4.288,-6.14 3.172,-6.653 c -1.346,0.29 -2.078,0.632 -2.194,1.027 0.016,0.136 0.421,0.282 1.214,0.438 -0.39,1.096 -0.747,1.913 -1.071,2.451 -0.865,-0.348 -2.329,-0.498 -4.392,-0.449 l -2.048,-0.921 -0.093,0.011 c -0.443,0.052 -0.639,0.3 -0.587,0.744 0.133,0.759 0.369,1.118 0.708,1.079 l 0.011,0.092 c -0.315,0.087 -0.445,0.359 -0.392,0.815 0.054,0.137 0.657,0.325 1.81,0.565 1.49,2.255 2.314,4.057 2.473,5.407 l -0.012,0.77 z" />
      </g>
      <g
         transform="matrix(0.35277777,0,0,-0.35277777,159.71181,279.61439)"
         id="g172">
        <path
           inkscape:connector-curvature="0"
           id="path174"
           style="fill:#00ffff;fill-opacity:1;fill-rule:nonzero;stroke:none"
           d="m 0,0 0.197,-1.408 1.408,0.91 v 0.095 z m -2.918,5.631 h 0.309 C -0.944,4.229 0.795,3.225 2.609,2.618 4.755,2.011 5.828,1.608 5.828,1.408 5.828,0.938 3.986,-0.266 0.3,-2.206 V -2.412 L 0.403,-3.416 H 0.3 L 0.403,-3.519 V -3.614 L 0.3,-3.717 V -3.82 l 0.103,-0.601 c -0.846,-0.572 -2.085,-1.141 -3.716,-1.708 -0.155,0 -0.258,0.169 -0.309,0.507 l 0.103,1.201 -0.103,0.704 h 0.103 l -0.103,0.103 v 0.601 l -0.198,1.408 h 0.103 C -4.3,0.381 -5.073,1.954 -6.034,3.116 l -0.198,0.3 v 0.103 z" />
      </g>
      <g
         transform="matrix(0.35277777,0,0,-0.35277777,152.14236,267.96274)"
         id="g192">
        <path
           inkscape:connector-curvature="0"
           id="path194"
           style="fill:#00ffff;fill-opacity:1;fill-rule:nonzero;stroke:none"
           d="m 0,0 h -13.49 l -1.028,1.691 h 6.906 9.056 z m -2.888,-3.382 h -8.545 l -1.029,1.691 h 11.018 z m -2.208,-2.585 c -0.292,-0.342 -1.166,-0.71 -2.394,-0.71 -1.152,0 -1.993,0.324 -2.333,0.647 l -0.582,0.957 h 6.072 z m -6.945,9.937 9.322,5.765 c 0.007,0.004 0.009,0.008 0.015,0.012 0.378,0.241 0.356,0.454 0,0.529 -0.053,0.011 -0.09,0.028 -0.158,0.033 l -1.124,0.07 c -0.535,0.034 -11.478,-6.521 -11.567,-6.581 -0.71,-0.484 -1.162,-0.87 -0.934,-1.641 0.104,-0.354 5.492,-9.073 5.492,-9.073 0.696,-0.815 2.1,-1.222 3.505,-1.222 0.703,0 1.405,0.101 2.019,0.305 0.614,0.204 1.139,0.51 1.487,0.917 L 2.534,0.717 H 3.656 V 3.97 Z" />
      </g>
      <g
         transform="matrix(0.35277777,0,0,-0.35277777,154.21207,267.36619)"
         id="g196">
        <path
           inkscape:connector-curvature="0"
           id="path198"
           style="fill:#fff44f;fill-opacity:1;fill-rule:nonzero;stroke:none"
           d="m 0,0 h 9.056 6.906 L 14.934,-1.691 H 1.444 Z M 2.888,-3.382 H 13.906 L 12.878,-5.073 H 4.333 Z m 2.889,-3.382 h 6.072 L 11.268,-7.721 C 10.927,-8.044 10.087,-8.368 8.934,-8.368 7.706,-8.368 6.832,-8 6.54,-7.658 Z m -7.988,9.043 v -3.253 h 1.121 l 6.518,-7.633 c 0.348,-0.407 0.874,-0.713 1.487,-0.917 0.614,-0.204 1.317,-0.305 2.019,-0.305 1.405,0 2.809,0.407 3.505,1.222 0,0 5.388,8.719 5.492,9.073 0.228,0.771 -0.224,1.157 -0.934,1.641 C 16.908,2.167 5.966,8.722 5.431,8.688 L 4.307,8.618 C 4.239,8.613 4.201,8.596 4.148,8.585 3.792,8.51 3.77,8.297 4.148,8.056 4.155,8.052 4.156,8.048 4.163,8.044 l 9.322,-5.765 z" />
      </g>
    </g>
  </g>
</svg>
